Coordinates
nRows=9
nColumns=38

# SIMM Motion File Header:
name Coordinates
datacolumns 38
datarows 9
otherdata 1
range 2.61980000000000010000 2.62780000000000010000

Units are S.I. units (second, meters, Newtons, ...)
Angles are in degrees.

endheader
time	pelvis_tilt	pelvis_list	pelvis_rotation	pelvis_tx	pelvis_ty	pelvis_tz	hip_flexion_r	hip_adduction_r	hip_rotation_r	knee_angle_r	ankle_angle_r	subtalar_angle_r	mtp_angle_r	hip_flexion_l	hip_adduction_l	hip_rotation_l	knee_angle_l	ankle_angle_l	subtalar_angle_l	mtp_angle_l	lumbar_extension	lumbar_bending	lumbar_rotation	arm_flex_r	arm_add_r	arm_rot_r	elbow_flex_r	pro_sup_r	wrist_flex_r	wrist_dev_r	arm_flex_l	arm_add_l	arm_rot_l	elbow_flex_l	pro_sup_l	wrist_flex_l	wrist_dev_l
      2.61980000000000010000	     -5.67451975326704710000	      0.12343674268225131000	     -2.56627569173463370000	      0.94551054441948645000	      1.07106124819940440000	     -0.33110675156267666000	     32.20907520198185400000	      6.12450674007241960000	      2.27888345441393980000	    -14.61650813025190300000	      9.41979269998646100000	      0.00000000000000000000	      0.00000000000000000000	    -14.83950716492639400000	      3.29728216176099530000	     -6.51242127156787460000	    -33.89971680474107500000	     -9.88848284407543330000	      0.00000000000000000000	      0.00000000000000000000	     -8.03471157198585400000	     -0.31801726793467006000	    -18.32705534621867800000	    -46.42745188796546100000	    -25.77803312527045100000	     -5.62479737860487990000	    101.90012222226380000000	    132.17636826042101000000	      0.00000000000000000000	      0.00000000000000000000	    -16.81417796240043900000	    -23.83397086932073000000	      3.24122748213646790000	    133.33723902175780000000	    105.47695402430165000000	      0.00000000000000000000	      0.00000000000000000000
      2.62080000000000000000	     -5.65426926048959630000	      0.09934816080859061600	     -2.64072626613062900000	      0.94566201812354189000	      1.07066184619228480000	     -0.33101471644042668000	     32.15507303122779300000	      6.18934045684931530000	      2.25260842417298820000	    -14.61639865013593600000	      9.39363940218069260000	      0.00000000000000000155	     -0.00000000000000000264	    -14.77790458549983700000	      3.29838603841091120000	     -6.51353329991662560000	    -34.31168249934749800000	     -9.69618482519311260000	      0.00000000000000000034	      0.00000000000000000064	     -8.04496930373741930000	     -0.26818863079531752000	    -18.23210468726858100000	    -46.34007959698397600000	    -25.82975190872717500000	     -5.63522720249602750000	    101.93916004074619000000	    132.18241951002381000000	      0.00000000000000000036	     -0.00000000000000000014	    -16.87531554730562900000	    -23.81690393723138000000	      3.27129581277995250000	    133.29923644759174000000	    105.47225767289723000000	     -0.00000000000000000026	      0.00000000000000000043
      2.62179999999999990000	     -5.63232021327013670000	      0.07471250945120137800	     -2.71444772674677330000	      0.94581132200218831000	      1.07025755178350250000	     -0.33092487028483697000	     32.09989916389406500000	      6.25439948111579460000	      2.22740928427711050000	    -14.62491784095489700000	      9.36520160064388560000	      0.00000000000000000394	     -0.00000000000000000270	    -14.71520489583546600000	      3.29937582567283180000	     -6.51261920445507330000	    -34.72745179563643300000	     -9.50453501959564130000	      0.00000000000000000086	      0.00000000000000000204	     -8.05771661149008090000	     -0.21763159603140889000	    -18.13751303648015800000	    -46.24951839573351000000	    -25.88237333983144200000	     -5.64403949680879350000	    101.97670816176652000000	    132.18754706774493000000	      0.00000000000000000034	     -0.00000000000000000025	    -16.93585543828585200000	    -23.79906070268725000000	      3.30177047556726280000	    133.25912239692551000000	    105.46642583450893000000	     -0.00000000000000000063	      0.00000000000000000138
      2.62280000000000020000	     -5.60869333975367200000	      0.04949305719936988200	     -2.78750721573239300000	      0.94595835962823238000	      1.06984846899632660000	     -0.33083710909073549000	     32.04360458754700900000	      6.31974094446559230000	      2.20365481939302740000	    -14.64206074944966000000	      9.33019540554268370000	      0.00000000000000000620	     -0.00000000000000000379	    -14.65141901666946500000	      3.30020333669590290000	     -6.50990575653585870000	    -35.14691177057194700000	     -9.31387318760399200000	      0.00000000000000000143	      0.00000000000000000430	     -8.07294329339365650000	     -0.16631550827816194000	    -18.04319129887037600000	    -46.15577380198566000000	    -25.93588514903997900000	     -5.65127178101891920000	    102.01274972344440000000	    132.19174352869268000000	      0.00000000000000000019	     -0.00000000000000000047	    -16.99575495344070600000	    -23.78042421466223300000	      3.33269970620924430000	    133.21685654033882000000	    105.45941232541396000000	     -0.00000000000000000068	      0.00000000000000000276
      2.62380000000000010000	     -5.58334225751138110000	      0.02369599008803631400	     -2.85985220212161060000	      0.94610321339942050000	      1.06943468205226840000	     -0.33075149366387385000	     31.98607315513029500000	      6.38532910354351020000	      2.18148604800778890000	    -14.66764560059075800000	      9.28929326343956770000	      0.00000000000000000940	     -0.00000000000000000613	    -14.58664469329601100000	      3.30083384002903780000	     -6.50550637747850760000	    -35.56992515352321500000	     -9.12456779538872810000	      0.00000000000000000188	      0.00000000000000000766	     -8.09069199186040140000	     -0.11425288402083232000	    -17.94916986762938300000	    -46.05889004710509500000	    -25.99026093234601800000	     -5.65697283142385920000	    102.04729852511755000000	    132.19500609000113000000	      0.00000000000000000034	      0.00000000000000000021	    -17.05499106082268000000	    -23.76100457275909500000	      3.36412871813696720000	    133.17242931241503000000	    105.45114606003006000000	     -0.00000000000000000108	      0.00000000000000000419
      2.62480000000000000000	     -5.55622055728680400000	     -0.00268030135813861330	     -2.93143096445002400000	      0.94624592109645611000	      1.06901630223198720000	     -0.33066807969795403000	     31.92721416567968600000	      6.45113599023086160000	      2.16107262482834630000	    -14.70153236696646600000	      9.24231934384011030000	      0.00000000000000001300	     -0.00000000000000001125	    -14.52097396285021000000	      3.30122171951582380000	     -6.49953817825792960000	    -35.99636424474557100000	     -8.93697890195408990000	      0.00000000000000000233	      0.00000000000000001101	     -8.11101184860412340000	     -0.06144794361191753500	    -17.85547446519037600000	    -45.95890176871314700000	    -26.04547168793601800000	     -5.66119069809768400000	    102.08036586514204000000	    132.19733248851804000000	      0.00000000000000000057	      0.00000000000000000090	    -17.11353156855224000000	    -23.74081515212608200000	      3.39610285583579330000	    133.12582799346146000000	    105.44155712934958000000	     -0.00000000000000000115	      0.00000000000000000500
      2.62579999999999990000	     -5.52722636875382100000	     -0.02963815707281279600	     -3.00219770656532070000	      0.94638652977157811000	      1.06859352886605130000	     -0.33058690732162171000	     31.86687914951627200000	      6.51713575303620370000	      2.14255803742034790000	    -14.74358370015670900000	      9.18936959495276890000	      0.00000000000000001555	     -0.00000000000000001673	    -14.45456745779100900000	      3.30132287609203700000	     -6.49212297600102590000	    -36.42608301040323900000	     -8.75147038328584340000	      0.00000000000000000299	      0.00000000000000001438	     -8.13401698780689840000	     -0.00790873071751251040	    -17.76212208904583200000	    -45.85583673891624600000	    -26.10148508787052200000	     -5.66397348088765010000	    102.11197148357539000000	    132.19872025974627000000	      0.00000000000000000075	      0.00000000000000000277	    -17.17133068707758200000	    -23.71988036102451500000	      3.42866550563988290000	    133.07704582111288000000	    105.43057066796217000000	     -0.00000000000000000188	      0.00000000000000000615
      2.62680000000000020000	     -5.49632801351714660000	     -0.05717329957627056300	     -3.07212290970528160000	      0.94652504452628172000	      1.06816643420626800000	     -0.33050798861551944000	     31.80502063930653700000	      6.58330903166018630000	      2.12608499377116500000	    -14.79370941426798700000	      9.13050693323847900000	      0.00000000000000001525	     -0.00000000000000002205	    -14.38750239076618900000	      3.30109840144755350000	     -6.48339425825076090000	    -36.85895968706363100000	     -8.56837752729654770000	      0.00000000000000000455	      0.00000000000000001679	     -8.15974342900175030000	      0.04635081265083793000	    -17.66911367085361900000	    -45.74973356646770400000	    -26.15826966062152800000	     -5.66537159636500930000	    102.14213388310250000000	    132.19916654866489000000	      0.00000000000000000101	      0.00000000000000000535	    -17.22835393722352400000	    -23.69822097115763900000	      3.46185810317131320000	    133.02607384972967000000	    105.41811975006776000000	     -0.00000000000000000322	      0.00000000000000000786
      2.62780000000000010000	     -5.46355415375390590000	     -0.08527717701897087600	     -3.14119288185396120000	      0.94666143418416271000	      1.06773497952657690000	     -0.33043130824829864000	     31.74167847134752300000	      6.64964434183133330000	      2.11178609805664900000	    -14.85186167689764500000	      9.06582754976080450000	      0.00000000000000001441	     -0.00000000000000002994	    -14.31978500929294600000	      3.30051210457866120000	     -6.47349699667008150000	    -37.29489389695397300000	     -8.38800820498463120000	      0.00000000000000000688	      0.00000000000000001784	     -8.18816058126100010000	      0.10131339832558640000	    -17.57643450015428900000	    -45.64064105138030000000	    -26.21579488831926200000	     -5.66543773063544090000	    102.17087147248387000000	    132.19866762736797000000	      0.00000000000000000111	      0.00000000000000000813	    -17.28457563980296600000	    -23.67585491764775800000	      3.49572006048276500000	    132.97290128161006000000	    105.40414471316552000000	     -0.00000000000000000459	      0.00000000000000001117
